<?xml version="1.0" encoding="UTF-8"?>
<!-- Do not edit this file with editors other than draw.io -->
<!DOCTYPE svg PUBLIC "-//W3C//DTD SVG 1.1//EN" "http://www.w3.org/Graphics/SVG/1.1/DTD/svg11.dtd">
<svg xmlns="http://www.w3.org/2000/svg" xmlns:xlink="http://www.w3.org/1999/xlink" version="1.1" width="405px" height="405px" viewBox="-0.5 -0.5 405 405" class="ge-export-svg-dark" content="&lt;mxfile host=&quot;app.diagrams.net&quot; modified=&quot;2024-02-22T16:36:03.167Z&quot; agent=&quot;Mozilla/5.0 (X11; Linux x86_64) AppleWebKit/537.36 (KHTML, like Gecko) Chrome/121.0.0.0 Safari/537.36&quot; version=&quot;23.1.5&quot; etag=&quot;hubG3pjp1RBd5OtR1oSh&quot; scale=&quot;1&quot; border=&quot;0&quot;&gt;&#10;  &lt;diagram name=&quot;Page-1&quot; id=&quot;5JZrXL_ZNsyyMgpXFVAD&quot;&gt;&#10;    &lt;mxGraphModel dx=&quot;2955&quot; dy=&quot;3302&quot; grid=&quot;1&quot; gridSize=&quot;10&quot; guides=&quot;1&quot; tooltips=&quot;1&quot; connect=&quot;1&quot; arrows=&quot;1&quot; fold=&quot;1&quot; page=&quot;1&quot; pageScale=&quot;1&quot; pageWidth=&quot;850&quot; pageHeight=&quot;1100&quot; math=&quot;0&quot; shadow=&quot;0&quot;&gt;&#10;      &lt;root&gt;&#10;        &lt;mxCell id=&quot;0&quot; /&gt;&#10;        &lt;mxCell id=&quot;1&quot; parent=&quot;0&quot; /&gt;&#10;        &lt;mxCell id=&quot;2&quot; value=&quot;&quot; style=&quot;group&quot; vertex=&quot;1&quot; connectable=&quot;0&quot; parent=&quot;1&quot;&gt;&#10;          &lt;mxGeometry x=&quot;70&quot; y=&quot;-2180&quot; width=&quot;400&quot; height=&quot;400&quot; as=&quot;geometry&quot; /&gt;&#10;        &lt;/mxCell&gt;&#10;        &lt;mxCell id=&quot;3&quot; value=&quot;&quot; style=&quot;ellipse;whiteSpace=wrap;html=1;aspect=fixed;fillColor=none;strokeWidth=5;strokeColor=#CC6600;&quot; vertex=&quot;1&quot; parent=&quot;2&quot;&gt;&#10;          &lt;mxGeometry width=&quot;400&quot; height=&quot;400&quot; as=&quot;geometry&quot; /&gt;&#10;        &lt;/mxCell&gt;&#10;        &lt;mxCell id=&quot;4&quot; value=&quot;&quot; style=&quot;group&quot; vertex=&quot;1&quot; connectable=&quot;0&quot; parent=&quot;2&quot;&gt;&#10;          &lt;mxGeometry x=&quot;43.5&quot; y=&quot;105&quot; width=&quot;313&quot; height=&quot;190&quot; as=&quot;geometry&quot; /&gt;&#10;        &lt;/mxCell&gt;&#10;        &lt;mxCell id=&quot;5&quot; value=&quot;&quot; style=&quot;sketch=0;aspect=fixed;pointerEvents=1;shadow=0;dashed=0;html=1;strokeColor=none;labelPosition=center;verticalLabelPosition=bottom;verticalAlign=top;align=center;fillColor=#CC6600;shape=mxgraph.azure.server_rack&quot; vertex=&quot;1&quot; parent=&quot;4&quot;&gt;&#10;          &lt;mxGeometry x=&quot;198.34798534798534&quot; y=&quot;78.23529411764706&quot; width=&quot;111.76470588235294&quot; height=&quot;111.76470588235294&quot; as=&quot;geometry&quot; /&gt;&#10;        &lt;/mxCell&gt;&#10;        &lt;mxCell id=&quot;6&quot; value=&quot;&quot; style=&quot;group&quot; vertex=&quot;1&quot; connectable=&quot;0&quot; parent=&quot;4&quot;&gt;&#10;          &lt;mxGeometry width=&quot;149.04761904761904&quot; height=&quot;139.7058823529412&quot; as=&quot;geometry&quot; /&gt;&#10;        &lt;/mxCell&gt;&#10;        &lt;mxCell id=&quot;7&quot; value=&quot;&quot; style=&quot;verticalLabelPosition=bottom;html=1;verticalAlign=top;align=center;strokeColor=none;fillColor=#CC6600;shape=mxgraph.azure.laptop;pointerEvents=1;&quot; vertex=&quot;1&quot; parent=&quot;6&quot;&gt;&#10;          &lt;mxGeometry width=&quot;149.04761904761904&quot; height=&quot;89.41176470588235&quot; as=&quot;geometry&quot; /&gt;&#10;        &lt;/mxCell&gt;&#10;        &lt;mxCell id=&quot;8&quot; value=&quot;&quot; style=&quot;sketch=0;points=[[0,0,0],[0.25,0,0],[0.5,0,0],[0.75,0,0],[1,0,0],[0,1,0],[0.25,1,0],[0.5,1,0],[0.75,1,0],[1,1,0],[0,0.25,0],[0,0.5,0],[0,0.75,0],[1,0.25,0],[1,0.5,0],[1,0.75,0]];points=[[0,0,0],[0.25,0,0],[0.5,0,0],[0.75,0,0],[1,0,0],[0,1,0],[0.25,1,0],[0.5,1,0],[0.75,1,0],[1,1,0],[0,0.25,0],[0,0.5,0],[0,0.75,0],[1,0.25,0],[1,0.5,0],[1,0.75,0]];outlineConnect=0;fontColor=#232F3E;fillColor=#CC6600;strokeColor=#ffffff;dashed=0;verticalLabelPosition=bottom;verticalAlign=top;align=center;html=1;fontSize=12;fontStyle=0;aspect=fixed;shape=mxgraph.aws4.resourceIcon;resIcon=mxgraph.aws4.command_line_interface;&quot; vertex=&quot;1&quot; parent=&quot;6&quot;&gt;&#10;          &lt;mxGeometry x=&quot;48.727106227106226&quot; y=&quot;11.176470588235293&quot; width=&quot;50.294117647058826&quot; height=&quot;50.294117647058826&quot; as=&quot;geometry&quot; /&gt;&#10;        &lt;/mxCell&gt;&#10;        &lt;mxCell id=&quot;9&quot; style=&quot;edgeStyle=orthogonalEdgeStyle;rounded=0;orthogonalLoop=1;jettySize=auto;html=1;startArrow=oval;startFill=1;endArrow=oval;endFill=1;strokeWidth=3;fillColor=#f8cecc;strokeColor=#FF8000;entryX=0.445;entryY=0.998;entryDx=0;entryDy=0;entryPerimeter=0;&quot; edge=&quot;1&quot; parent=&quot;6&quot; target=&quot;7&quot;&gt;&#10;          &lt;mxGeometry relative=&quot;1&quot; as=&quot;geometry&quot;&gt;&#10;            &lt;mxPoint x=&quot;198.34798534798534&quot; y=&quot;139.7058823529412&quot; as=&quot;sourcePoint&quot; /&gt;&#10;            &lt;mxPoint x=&quot;-386.37728937728934&quot; y=&quot;72.64705882352942&quot; as=&quot;targetPoint&quot; /&gt;&#10;            &lt;Array as=&quot;points&quot;&gt;&#10;              &lt;mxPoint x=&quot;66.4981684981685&quot; y=&quot;139.7058823529412&quot; /&gt;&#10;            &lt;/Array&gt;&#10;          &lt;/mxGeometry&gt;&#10;        &lt;/mxCell&gt;&#10;        &lt;mxCell id=&quot;10&quot; style=&quot;edgeStyle=orthogonalEdgeStyle;rounded=0;orthogonalLoop=1;jettySize=auto;html=1;startArrow=oval;startFill=1;endArrow=oval;endFill=1;strokeWidth=3;fillColor=#f8cecc;strokeColor=#FF8000;entryX=0.5;entryY=1;entryDx=0;entryDy=0;entryPerimeter=0;&quot; edge=&quot;1&quot; parent=&quot;6&quot;&gt;&#10;          &lt;mxGeometry relative=&quot;1&quot; as=&quot;geometry&quot;&gt;&#10;            &lt;mxPoint x=&quot;198.34798534798534&quot; y=&quot;128.52941176470588&quot; as=&quot;sourcePoint&quot; /&gt;&#10;            &lt;mxPoint x=&quot;77.96336996336996&quot; y=&quot;89.41176470588235&quot; as=&quot;targetPoint&quot; /&gt;&#10;            &lt;Array as=&quot;points&quot;&gt;&#10;              &lt;mxPoint x=&quot;77.96336996336996&quot; y=&quot;128.52941176470588&quot; /&gt;&#10;            &lt;/Array&gt;&#10;          &lt;/mxGeometry&gt;&#10;        &lt;/mxCell&gt;&#10;      &lt;/root&gt;&#10;    &lt;/mxGraphModel&gt;&#10;  &lt;/diagram&gt;&#10;&lt;/mxfile&gt;&#10;"><defs><style type="text/css">svg.ge-export-svg-dark { filter: invert(100%) hue-rotate(180deg); }&#xa;svg.ge-export-svg-dark foreignObject img,&#xa;svg.ge-export-svg-dark image:not(svg.ge-export-svg-dark switch image),&#xa;svg.ge-export-svg-dark svg { filter: invert(100%) hue-rotate(180deg) }</style></defs><g><ellipse cx="202" cy="202" rx="200" ry="200" fill="none" stroke="#cc6600" stroke-width="5" pointer-events="all"/><rect x="243.85" y="185.24" width="111.76" height="111.76" fill="none" stroke="none" pointer-events="all"/><path d="M 243.97 227.86 C 244.09 225.41 246.07 223.49 248.47 223.5 L 351 223.5 C 353.4 223.49 355.38 225.41 355.5 227.86 L 355.61 254.25 C 355.61 255.49 355.12 256.67 354.25 257.54 C 353.39 258.4 352.21 258.87 351 258.84 L 248.47 258.84 C 245.99 258.84 243.97 256.79 243.97 254.25 Z M 257.48 250.46 C 257.48 248.25 255.71 246.45 253.54 246.45 C 251.36 246.45 249.6 248.25 249.6 250.46 C 249.6 252.68 251.36 254.48 253.54 254.48 C 255.71 254.48 257.48 252.68 257.48 250.46 Z M 325 250.12 C 324.32 250.12 323.76 250.69 323.76 251.38 C 323.76 252.08 324.32 252.65 325 252.65 L 347.51 252.65 C 348.19 252.65 348.75 252.08 348.75 251.38 C 348.75 250.69 348.19 250.12 347.51 250.12 Z M 325 245.76 C 324.32 245.76 323.76 246.32 323.76 247.02 C 323.76 247.72 324.32 248.28 325 248.28 L 347.51 248.28 C 348.19 248.28 348.75 247.72 348.75 247.02 C 348.75 246.32 348.19 245.76 347.51 245.76 Z M 325 241.28 C 324.32 241.28 323.76 241.85 323.76 242.55 C 323.76 243.24 324.32 243.81 325 243.81 L 347.51 243.81 C 348.19 243.81 348.75 243.24 348.75 242.55 C 348.75 241.85 348.19 241.28 347.51 241.28 Z M 243.85 189.6 C 243.97 187.15 245.95 185.23 248.35 185.24 L 350.87 185.24 C 353.28 185.23 355.26 187.15 355.38 189.6 L 355.49 215.99 C 355.49 217.23 355 218.41 354.13 219.28 C 353.26 220.14 352.09 220.61 350.87 220.58 L 248.35 220.58 C 245.86 220.58 243.85 218.53 243.85 215.99 Z M 257.35 212.2 C 257.35 209.99 255.59 208.19 253.41 208.19 C 251.24 208.19 249.48 209.99 249.48 212.2 C 249.48 214.42 251.24 216.22 253.41 216.22 C 255.59 216.22 257.35 214.42 257.35 212.2 Z M 324.88 211.86 C 324.19 211.86 323.64 212.42 323.64 213.12 C 323.64 213.82 324.19 214.38 324.88 214.38 L 347.39 214.38 C 348.07 214.38 348.62 213.82 348.62 213.12 C 348.62 212.42 348.07 211.86 347.39 211.86 Z M 324.88 207.5 C 324.19 207.5 323.64 208.06 323.64 208.76 C 323.64 209.46 324.19 210.02 324.88 210.02 L 347.39 210.02 C 348.07 210.02 348.62 209.46 348.62 208.76 C 348.62 208.06 348.07 207.5 347.39 207.5 Z M 324.88 203.02 C 324.19 203.02 323.64 203.59 323.64 204.29 C 323.64 204.98 324.19 205.55 324.88 205.55 L 347.39 205.55 C 348.07 205.55 348.62 204.98 348.62 204.29 C 348.62 203.59 348.07 203.02 347.39 203.02 Z M 243.97 265.98 C 244.09 263.54 246.07 261.62 248.47 261.62 L 351 261.62 C 353.4 261.62 355.38 263.54 355.5 265.98 L 355.61 292.38 C 355.61 293.61 355.12 294.8 354.25 295.66 C 353.39 296.53 352.21 297 351 296.97 L 248.47 296.97 C 245.99 296.97 243.97 294.91 243.97 292.38 Z M 257.48 288.59 C 257.48 286.37 255.71 284.57 253.54 284.57 C 251.36 284.57 249.6 286.37 249.6 288.59 C 249.6 290.81 251.36 292.6 253.54 292.6 C 255.71 292.6 257.48 290.81 257.48 288.59 Z M 325 288.24 C 324.32 288.24 323.76 288.81 323.76 289.51 C 323.76 290.2 324.32 290.77 325 290.77 L 347.51 290.77 C 348.19 290.77 348.75 290.2 348.75 289.51 C 348.75 288.81 348.19 288.24 347.51 288.24 Z M 325 283.88 C 324.32 283.88 323.76 284.45 323.76 285.15 C 323.76 285.84 324.32 286.41 325 286.41 L 347.51 286.41 C 348.19 286.41 348.75 285.84 348.75 285.15 C 348.75 284.45 348.19 283.88 347.51 283.88 Z M 325 279.41 C 324.32 279.41 323.76 279.97 323.76 280.67 C 323.76 281.37 324.32 281.93 325 281.93 L 347.51 281.93 C 348.19 281.93 348.75 281.37 348.75 280.67 C 348.75 279.97 348.19 279.41 347.51 279.41 Z" fill="#cc6600" stroke="none" pointer-events="all"/><rect x="45.5" y="107" width="149.05" height="89.41" fill="none" stroke="none" pointer-events="all"/><path d="M 58.13 176.36 L 58.13 111.01 C 59.05 108.86 61.03 107.33 63.36 107 L 176.23 107 C 179.1 107.31 181.44 109.4 182.06 112.2 L 182.06 176.36 L 194.02 189.28 C 194.55 190.89 194.04 192.57 192.62 193.92 C 191.21 195.27 189.01 196.17 186.55 196.41 L 53.65 196.41 C 51.16 196.2 48.93 195.31 47.48 193.95 C 46.03 192.6 45.5 190.91 46.02 189.28 Z M 63.07 176.36 L 177.58 176.51 L 177.58 113.54 C 177.04 111.96 175.65 110.81 173.99 110.56 L 66.06 110.56 C 64.42 111.13 63.26 112.57 63.07 114.28 Z M 108.51 185.12 L 104.48 190.92 L 132.58 190.92 L 129.44 185.12 Z" fill="#cc6600" stroke="none" pointer-events="all"/><path d="M 94.23 118.18 L 144.52 118.18 L 144.52 168.47 L 94.23 168.47 Z" fill="#cc6600" stroke="none" pointer-events="all"/><path d="M 117.94 151.23 L 130.15 151.23 L 130.15 149.79 L 117.94 149.79 Z M 107.39 138.6 L 114.64 145.85 L 107.39 153.09 L 108.41 154.11 L 116.67 145.85 L 108.41 137.59 Z M 102.85 128.24 L 104.29 128.24 L 104.29 126.8 L 102.85 126.8 Z M 105.72 128.24 L 107.16 128.24 L 107.16 126.8 L 105.72 126.8 Z M 108.6 128.24 L 110.03 128.24 L 110.03 126.8 L 108.6 126.8 Z M 100.69 129.67 L 100.69 125.36 L 138.05 125.36 L 138.05 129.67 Z M 99.26 123.92 L 99.26 162.72 L 123.69 162.72 L 123.69 161.29 L 100.69 161.29 L 100.69 131.11 L 138.05 131.11 L 138.05 161.29 L 133.03 161.29 L 133.03 162.72 L 139.49 162.72 L 139.49 123.92 Z" fill="#ffffff" stroke="none" pointer-events="all"/><path d="M 240.85 246.71 L 111.73 246.73 L 111.82 199.23" fill="none" stroke="#ff8000" stroke-width="3" stroke-miterlimit="10" pointer-events="stroke"/><ellipse cx="243.85" cy="246.71" rx="3" ry="3" fill="#ff8000" stroke="#ff8000" stroke-width="3" pointer-events="all"/><ellipse cx="111.83" cy="196.23" rx="3" ry="3" fill="#ff8000" stroke="#ff8000" stroke-width="3" pointer-events="all"/><path d="M 240.85 235.53 L 123.55 235.45 L 123.47 199.41" fill="none" stroke="#ff8000" stroke-width="3" stroke-miterlimit="10" pointer-events="stroke"/><ellipse cx="243.85" cy="235.53" rx="3" ry="3" fill="#ff8000" stroke="#ff8000" stroke-width="3" pointer-events="all"/><ellipse cx="123.46" cy="196.41" rx="3" ry="3" fill="#ff8000" stroke="#ff8000" stroke-width="3" pointer-events="all"/></g></svg>